<svg width="228" height="84" viewBox="0 0 228 84" fill="none" xmlns="http://www.w3.org/2000/svg">
<g id="TexasInstruments-Logo 1">
<g id="layer1">
<g id="g7585">
<path id="path10" fill-rule="evenodd" clip-rule="evenodd" d="M42.1623 14.3725C45.8315 14.3725 50.2016 14.7419 51.5208 15.3988C51.5208 16.384 51.5208 19.7091 51.5208 20.0375C51.5208 24.7174 54.2006 25.3742 54.2006 25.3742C54.2006 25.3742 54.2006 27.3857 54.2006 29.6846C54.2006 32.6813 53.541 34.6928 53.541 34.6928C52.1805 35.0212 48.8411 36.0064 45.1718 38.6748C42.4921 40.6863 40.1422 43.683 40.1422 46.6797C40.1422 48.6502 40.4719 50.0049 41.1728 51.3185C41.1728 51.3185 39.8123 51.9753 37.4624 51.9753C34.4941 51.6469 31.1547 49.307 29.1345 45.6534C26.4548 41.0147 25.1356 35.3496 22.1259 35.3496C19.1164 35.3496 19.1164 38.3463 16.7664 38.3463C14.0867 38.3463 12.4375 34.036 11.7779 32.0245C10.0876 29.0277 6.08864 28.0425 5.75879 23.3627H18.4567C18.4567 16.384 18.4567 12.402 18.4567 5.42334C23.1154 5.42334 25.7952 5.42334 30.4538 5.42334V13.0588C30.8248 13.3872 31.8143 13.7157 33.1336 14.0441L31.8143 20.0375H28.1451L26.7845 25.3742H30.4538L29.1345 32.0245C29.1345 33.0097 28.8047 35.3496 29.1345 36.3348C29.7942 39.0032 31.4844 39.9884 33.7932 39.9884C37.1326 39.9884 40.1422 38.3463 40.1422 38.3463L41.5027 34.036C40.8431 34.036 39.8123 34.036 39.1527 34.036C38.493 34.036 37.8334 34.036 38.1632 32.3529L39.8123 25.3742H43.4816L44.8421 20.0375H41.1728L42.1623 14.3725Z" fill="#494949"/>
<path id="path14" fill-rule="evenodd" clip-rule="evenodd" d="M34.8234 16.384H39.4822L35.8129 33.7076H31.1543L34.8234 16.384Z" fill="#494949"/>
<path id="path18" fill-rule="evenodd" clip-rule="evenodd" d="M38.1632 10.062C39.4825 10.062 40.843 11.0472 40.843 12.7303C40.843 14.044 39.4825 15.0703 38.1632 15.0703C36.8028 15.0703 35.4834 14.044 35.4834 12.7303C35.4834 11.0472 36.8028 10.062 38.1632 10.062Z" fill="#494949"/>
<path id="path22" fill-rule="evenodd" clip-rule="evenodd" d="M154.424 31.3677C157.103 31.3677 158.752 31.6961 159.082 32.0245C159.742 32.0245 159.412 31.6961 159.742 31.3677H160.113L161.762 36.0065L161.102 36.3349C160.113 35.0212 158.093 33.7076 154.753 33.7076C153.434 33.7076 150.754 34.036 150.754 36.0065C150.754 39.9884 163.123 37.6895 163.123 45.6535C163.123 49.307 160.113 51.9753 154.424 51.9753C152.404 51.9753 150.754 51.6469 149.064 50.9901C148.734 50.9901 148.404 51.3185 148.404 51.6469L147.745 51.9753L145.725 45.9819L146.384 45.6535C148.075 47.665 150.425 49.307 154.424 49.307C157.763 49.307 158.752 47.9934 158.752 46.6797C158.752 41.9999 146.714 44.9967 146.714 36.9917C146.714 33.3381 150.425 31.3677 154.424 31.3677Z" fill="#494949"/>
<path id="path26" fill-rule="evenodd" clip-rule="evenodd" d="M84.9141 51.6469V50.9901C86.2746 50.6617 86.9342 50.3333 86.9342 48.3218V34.6928C86.9342 32.6813 86.2746 32.3529 84.9141 32.0245V31.3677H100.622L102.312 35.678L101.652 36.0065C100.292 34.3644 98.9724 34.036 96.6226 34.036C96.2927 34.036 92.9533 34.036 92.9533 34.036C91.5928 34.036 91.263 34.3644 91.263 35.3496V39.66H96.6226C98.6427 39.66 98.9724 39.3316 99.3023 38.3464H99.9619V43.683H99.3023C98.9724 42.6567 98.6427 42.3283 96.6226 42.3283H91.263V47.665C91.263 48.9786 91.5928 48.9786 92.9533 48.9786C92.9533 48.9786 97.2822 48.9786 97.6119 48.9786C99.6321 48.9786 101.281 48.9786 102.971 47.0082L103.301 47.3366L101.982 51.6469H84.9141Z" fill="#494949"/>
<path id="path30" fill-rule="evenodd" clip-rule="evenodd" d="M79.9259 48.3217C79.9259 50.3332 80.5855 50.6616 81.575 50.99V51.6468H72.9172V50.99C73.9067 50.6616 74.8962 50.3332 74.8962 48.3217V29.0276C74.8962 28.0424 74.2366 28.0424 72.9172 28.0424C68.5472 28.0424 66.8981 28.0424 65.2078 29.6844H64.8779L66.5683 25.0457H88.2538L89.944 29.6844H89.2844C87.9238 28.0424 85.945 28.0424 81.575 28.0424C80.2557 28.0424 79.9259 28.0424 79.9259 29.0276V48.3217Z" fill="#494949"/>
<path id="path34" fill-rule="evenodd" clip-rule="evenodd" d="M112.001 41.6715L106.311 34.3644C105.322 32.6813 104.621 32.3529 103.302 32.0245V31.3677H112.66V32.0245C111.671 32.0245 110.97 33.0097 112.001 34.3644L114.639 38.3464L118.02 34.036C118.679 33.0097 118.679 32.0245 117.319 32.0245V31.3677H125.028V32.0245C123.668 32.3529 122.678 32.6813 121.359 34.036L116.659 40.6863L122.349 48.6502C123.008 49.6354 123.668 50.3333 123.668 50.3333C123.668 50.3333 124.699 50.0049 126.018 46.6797L132.367 31.3677H136.366L143.745 48.6502C144.075 49.6354 145.065 50.6617 146.054 50.9901V51.6469H137.397V50.9901C138.056 50.9901 139.375 50.6617 138.386 48.6502L137.397 45.9819H129.027L128.038 48.6502C127.007 50.6617 128.698 50.9901 129.027 50.9901V51.6469H116V50.9901C116.659 50.9901 118.35 50.3333 116.989 48.6502L113.65 44.3398L110.31 48.9786C109.321 50.3333 110.31 50.9901 110.97 50.9901V51.6469H103.302V50.9901C104.621 50.6617 105.982 50.0049 106.971 48.3218L112.001 41.6715ZM133.356 35.3496L130.017 43.3546H136.366L133.356 35.3496Z" fill="#494949"/>
<path id="path38" fill-rule="evenodd" clip-rule="evenodd" d="M7.4076 54.6437C7.4076 52.6322 6.41809 52.3038 5.42871 51.9754V51.647H14.0864V51.9754C13.4268 52.3038 12.4372 52.6322 12.4372 54.6437V74.923C12.4372 76.9345 13.4268 77.2629 14.0864 77.5913V78.2481H5.42871V77.5913C6.41809 77.2629 7.4076 76.9345 7.4076 74.923V54.6437Z" fill="#494949"/>
<path id="path42" fill-rule="evenodd" clip-rule="evenodd" d="M35.1537 78.248H34.4941L20.7654 63.9622V74.9229C20.7654 76.9344 21.7962 77.2628 22.4558 77.5912V78.248H16.4365V77.5912C17.426 77.2628 18.0857 76.9344 18.0857 74.9229V61.2939C18.0857 59.2824 17.426 58.954 16.4365 58.6256V57.9688H22.1259L32.4739 69.2989V61.2939C32.4739 59.2824 31.8143 58.954 30.8248 58.6256V57.9688H37.1325V58.6256C36.1432 58.954 35.1537 59.2824 35.1537 61.2939V78.248Z" fill="#494949"/>
<path id="path46" fill-rule="evenodd" clip-rule="evenodd" d="M114.309 71.2693C114.309 77.2628 108.991 78.5764 105.651 78.5764C101.982 78.5764 96.6227 77.2628 96.6227 71.5977V61.2939C96.6227 59.2824 95.6332 58.6256 94.6025 58.6256V57.9688H102.972V58.6256C101.982 58.6256 100.951 59.2824 100.951 61.2939V71.2693C100.951 74.5945 102.972 75.9492 106.311 75.9492C109.321 75.9492 111.67 74.5945 111.67 71.2693V61.2939C111.67 59.2824 110.64 58.954 109.65 58.6256V57.9688H115.999V58.6256C115.01 58.954 114.309 59.2824 114.309 61.2939V71.2693Z" fill="#494949"/>
<path id="path50" fill-rule="evenodd" clip-rule="evenodd" d="M62.1987 61.9507C62.1987 60.6371 62.1987 60.6371 61.2094 60.6371C57.87 60.6371 57.2102 60.6371 55.1902 62.977L54.8604 62.6486L56.1796 57.9688H72.9178L74.5669 62.6486L73.9073 62.977C72.217 60.6371 71.5573 60.6371 68.2178 60.6371C67.2285 60.6371 66.8986 60.6371 66.8986 61.9507V74.9229C66.8986 76.9344 67.5582 77.2628 68.8775 77.5912V78.248H60.5497V77.5912C61.869 77.2628 62.1987 76.9344 62.1987 74.9229V61.9507Z" fill="#494949"/>
<path id="path54" fill-rule="evenodd" clip-rule="evenodd" d="M46.8617 57.6404C49.1704 57.6404 50.8608 58.2972 51.1905 58.2972C51.8501 58.6256 51.8502 57.9688 51.8502 57.9688L52.5099 57.6404L53.8703 62.6486H53.1695C52.18 61.6223 50.5309 60.3087 47.1915 60.3087C45.5013 60.3087 42.8215 60.6371 42.8215 62.6486C42.8215 66.3022 55.5194 64.2907 55.5194 72.2546C55.5194 75.9492 52.5099 78.2481 46.8617 78.2481C44.5117 78.2481 42.8215 77.9196 41.1724 77.5912C40.8426 77.5912 40.8426 77.9196 40.4715 77.9196C40.4715 78.2481 39.8119 78.2481 39.8119 78.2481L37.833 72.6241L38.4926 72.2546C40.1417 74.2661 42.4916 75.9492 46.4906 75.9492C49.8301 75.9492 50.8608 74.5945 50.8608 73.2809C50.8608 68.601 38.8225 71.5978 38.8225 63.6339C38.8225 59.9803 42.8215 57.6404 46.8617 57.6404Z" fill="#494949"/>
<path id="path58" fill-rule="evenodd" clip-rule="evenodd" d="M141.396 74.9229C141.396 76.9344 142.385 77.2628 143.375 77.5912V78.248H135.047V77.5912C136.036 77.2628 137.026 76.9344 137.026 74.9229V65.2758L129.687 78.5764H129.028L121.689 64.9474V74.9229C121.689 76.9344 122.679 77.2628 123.668 77.5912V78.248H117.319V77.5912C118.02 77.2628 119.01 76.9344 119.01 74.9229V61.2939C119.01 59.2824 118.02 58.954 117.319 58.6256V57.9688H123.668L130.347 71.2693L137.727 57.9688H143.375V58.6256C142.385 58.954 141.396 59.2824 141.396 61.2939V74.9229Z" fill="#494949"/>
<path id="path62" fill-rule="evenodd" clip-rule="evenodd" d="M183.488 78.248H182.829L169.1 63.9622V74.9229C169.1 76.9344 170.131 77.2628 170.79 77.5912V78.248H164.441V77.5912C165.431 77.2628 166.462 76.9344 166.462 74.9229V61.2939C166.462 59.2824 165.761 58.954 164.441 58.6256V57.9688H170.461L180.809 69.2989V61.2939C180.809 59.2824 179.819 58.954 178.788 58.6256V57.9688H185.179V58.6256C184.478 58.954 183.488 59.2824 183.488 61.2939V78.248Z" fill="#494949"/>
<path id="path66" fill-rule="evenodd" clip-rule="evenodd" d="M145.725 78.248V77.5912C146.714 77.2628 147.415 76.606 147.415 74.9229V61.2939C147.415 59.2824 146.714 58.954 145.725 58.6256V57.9688H161.432L162.793 62.2791L162.422 62.6486C161.102 60.9655 159.412 60.6371 157.433 60.6371C157.103 60.6371 153.434 60.6371 153.434 60.6371C152.403 60.6371 152.074 60.9655 152.074 61.9507V66.3021H157.103C159.082 66.3021 159.742 65.6042 159.742 64.9474H160.443V70.2841H159.742C159.742 69.2989 159.082 68.9704 157.103 68.9704H152.074V74.266C152.074 75.2923 152.403 75.6207 153.434 75.6207C153.434 75.6207 157.763 75.6207 158.093 75.6207C160.113 75.6207 162.092 75.6207 163.452 73.6092L164.112 73.9376L162.422 78.248H145.725Z" fill="#494949"/>
<path id="path70" fill-rule="evenodd" clip-rule="evenodd" d="M192.846 61.9507C192.846 60.6371 192.517 60.6371 191.816 60.6371C188.147 60.6371 187.817 60.6371 185.838 62.977L185.467 62.6486L186.827 57.9688H203.524L205.215 62.6486L204.555 62.977C202.865 60.6371 202.205 60.6371 198.866 60.6371C197.835 60.6371 197.505 60.6371 197.505 61.9507V74.9229C197.505 76.9344 198.165 77.2628 199.525 77.5912V78.248H191.156V77.5912C192.187 77.2628 192.846 76.9344 192.846 74.9229V61.9507Z" fill="#494949"/>
<path id="path74" fill-rule="evenodd" clip-rule="evenodd" d="M213.872 57.6404C216.222 57.6404 217.913 58.2972 218.572 58.2972C218.902 58.6256 218.902 57.9688 218.902 57.9688C219.232 57.9688 219.562 57.6404 219.562 57.6404L220.881 62.6486H220.551C219.562 61.6223 217.542 60.3087 214.243 60.3087C212.553 60.3087 210.203 60.6371 210.203 62.6486C210.203 66.3022 222.571 64.2907 222.571 72.2546C222.571 75.9492 219.562 78.2481 213.872 78.2481C211.564 78.2481 209.873 77.9196 208.224 77.5912C207.894 77.5912 207.894 77.9196 207.894 77.9196C207.523 78.2481 207.193 78.2481 207.193 78.2481L204.885 72.6241L205.544 72.2546C207.193 74.2661 209.873 75.9492 213.542 75.9492C216.882 75.9492 217.913 74.5945 217.913 73.2809C217.913 68.601 205.874 71.5978 205.874 63.6339C205.874 59.9803 209.873 57.6404 213.872 57.6404Z" fill="#494949"/>
<path id="path78" fill-rule="evenodd" clip-rule="evenodd" d="M85.574 57.9688C89.9441 57.9688 93.2835 59.6518 93.2835 63.3054C93.2835 67.2874 89.6143 67.9442 87.5942 68.2726C92.9537 70.2841 93.2835 77.2628 96.6229 77.2628V77.5912C95.9633 77.9196 95.3036 78.248 93.6133 78.248C86.2749 78.248 87.9239 69.2989 83.2653 69.2989H80.9154V74.9229C80.9154 76.9344 81.575 77.2628 82.6057 77.5912V78.248H74.5664V77.5912C75.5559 77.2628 76.2567 76.9344 76.2567 74.9229V61.2939C76.2567 59.2824 75.5559 58.954 74.5664 58.6256V57.9688H85.574ZM80.9154 66.9589H83.5951C85.945 66.9589 88.5837 65.9737 88.5837 63.6338C88.5837 62.2791 87.5942 60.3087 84.5845 60.3087H82.2759C81.2451 60.3087 80.9154 60.6371 80.9154 61.9507V66.9589Z" fill="#494949"/>
</g>
</g>
</g>
</svg>
